<?xml version="1.0" standalone="no"?><!DOCTYPE svg PUBLIC "-//W3C//DTD SVG 1.1//EN" "http://www.w3.org/Graphics/SVG/1.1/DTD/svg11.dtd"><svg t="1640830899499" class="icon" viewBox="0 0 1024 1024" version="1.1" xmlns="http://www.w3.org/2000/svg" p-id="3570" xmlns:xlink="http://www.w3.org/1999/xlink" width="200" height="200"><defs><style type="text/css"></style></defs><path d="M633.976471 260.517647c-39.152941 2.258824-76.8 18.070588-110.682353 37.647059-46.682353 27.105882-88.094118 62.494118-128.752942 97.129412-87.341176 74.541176-172.423529 150.588235-256 228.894117-16.564706 15.811765-34.635294 33.129412-39.905882 55.717647-6.023529 24.847059 3.764706 50.447059 18.070588 71.529412 20.329412 29.364706 57.223529 52.705882 91.105883 42.164706 16.564706-5.270588 29.364706-17.317647 41.411764-29.364706 95.623529-91.858824 194.258824-180.705882 296.658824-265.788235 15.811765-12.8 31.623529-26.352941 51.2-32.376471 19.576471-6.023529 42.917647-3.764706 56.470588 11.294118 17.317647 18.823529 12.8 48.941176 0 70.77647-12.8 21.835294-48.941176 97.882353 36.141177 136.282353 9.035294 4.517647 20.329412 4.517647 30.117647 2.258824 8.282353-2.258824 15.058824-6.776471 21.835294-11.294118 58.729412-42.917647 94.117647-115.2 93.364706-187.482353-1.505882-101.647059-90.352941-232.658824-201.035294-227.388235z" fill="#D83E3E" p-id="3571"></path><path d="M833.505882 466.070588l-216.094117-203.294117c-33.129412 4.517647-65.505882 18.823529-94.117647 36.141176h-0.752942l295.152942 277.835294c11.294118-27.858824 18.070588-58.729412 17.317647-88.847059 0-7.529412-0.752941-15.058824-1.505883-21.835294zM316.988235 700.235294L187.482353 578.258824c-16.564706 15.058824-32.376471 30.117647-48.941177 45.17647-6.023529 5.270588-12.047059 11.294118-17.317647 17.317647l128.752942 121.22353c22.588235-20.329412 44.423529-41.411765 67.011764-61.741177zM318.494118 461.552941c-23.341176 20.329412-45.929412 40.658824-68.517647 60.988235l128.752941 121.22353c22.588235-20.329412 45.929412-40.658824 68.517647-60.988235L318.494118 461.552941zM584.282353 471.341176L452.517647 347.105882c-19.576471 15.811765-39.152941 31.623529-57.976471 48.188236-3.764706 3.764706-8.282353 6.776471-12.047058 10.541176l129.505882 121.976471c12.047059-9.788235 23.341176-20.329412 35.388235-30.117647 10.541176-9.788235 23.341176-19.576471 36.894118-26.352942zM654.305882 548.141176c-12.8 21.835294-48.941176 97.882353 36.141177 136.282353 9.035294 4.517647 20.329412 4.517647 30.117647 2.258824 8.282353-2.258824 15.058824-6.776471 21.835294-11.294118 10.541176-8.282353 21.082353-16.564706 30.117647-27.105882L658.070588 540.611765c-1.505882 2.258824-2.258824 5.270588-3.764706 7.529411z" fill="#FBDADA" p-id="3572"></path><path d="M690.447059 286.870588C588.047059 278.588235 501.458824 341.082353 423.905882 401.317647c-45.176471 34.635294-88.094118 72.282353-131.011764 110.682353-39.905882 36.141176-88.094118 72.282353-119.717647 115.952941-5.270588 7.529412 3.011765 15.811765 10.541176 11.294118 40.658824-26.352941 74.541176-67.011765 110.682353-100.141177C332.8 502.964706 372.705882 469.082353 413.364706 436.705882 493.929412 373.458824 583.529412 304.941176 690.447059 298.917647c6.776471-0.752941 6.776471-11.294118 0-12.047059z" fill="#FFFFFF" p-id="3573"></path><path d="M155.858824 649.788235c-14.305882 14.305882-30.870588 27.858824-39.905883 45.176471-3.011765 6.023529 5.270588 12.047059 9.788235 8.282353 15.811765-12.047059 27.105882-30.870588 38.4-46.682353 4.517647-5.270588-3.764706-11.294118-8.282352-6.776471z" fill="#FFFFFF" p-id="3574"></path><path d="M780.8 393.788235c15.058824 48.941176 20.329412 96.376471 0.752941 145.317647-15.058824 37.647059-47.435294 60.988235-64.752941 95.62353-1.505882 3.764706 1.505882 8.282353 5.270588 7.529412 44.423529-9.035294 72.282353-62.494118 83.576471-102.4 14.305882-49.694118 9.788235-106.164706-16.564706-150.588236-3.011765-5.270588-9.788235-0.752941-8.282353 4.517647z" fill="#FFFFFF" p-id="3575"></path><path d="M630.211765 461.552941c-88.847059-15.058824-160.376471 76.8-219.105883 129.505883-41.411765 36.894118-82.070588 74.541176-122.729411 111.435294-36.141176 32.376471-88.094118 97.129412-140.8 77.552941 18.823529 12.8 40.658824 19.576471 61.741176 12.8 16.564706-5.270588 29.364706-17.317647 41.411765-29.364706 95.623529-91.858824 194.258824-180.705882 296.658823-265.788235 15.811765-12.8 31.623529-26.352941 51.2-32.376471 12.047059-3.764706 25.6-4.517647 37.647059-0.752941-2.258824-1.505882-3.764706-3.011765-6.023529-3.011765z" fill="#231F20" p-id="3576"></path><path d="M769.505882 359.905882c-6.023529-15.811765-24.847059-34.635294-41.411764-38.4-2.258824-0.752941-3.764706 2.258824-2.258824 3.764706 5.270588 7.529412 12.047059 13.552941 18.82353 19.576471 6.023529 6.776471 12.047059 14.305882 18.823529 20.329412 3.011765 3.011765 7.529412-0.752941 6.023529-5.270589z" fill="#FFFFFF" p-id="3577"></path><path d="M661.835294 318.494118c-42.917647 0-91.105882 20.329412-120.470588 51.952941-3.011765 3.011765 0.752941 8.282353 5.270588 6.77647 19.576471-8.282353 37.647059-19.576471 57.22353-28.611764 19.576471-9.035294 39.905882-15.058824 59.482352-23.341177 4.517647-0.752941 2.258824-6.776471-1.505882-6.77647z" fill="#FFFFFF" p-id="3578"></path><path d="M517.270588 390.776471c3.011765 8.282353 15.811765 3.011765 12.8-5.270589-3.011765-7.529412-15.811765-3.011765-12.8 5.270589z" fill="#FFFFFF" p-id="3579"></path><path d="M413.364706 462.305882c-5.270588 3.011765-10.541176 6.023529-15.811765 9.788236-4.517647 3.011765-9.788235 5.270588-13.552941 9.788235-3.011765 3.764706 0.752941 8.282353 5.270588 6.776471 5.270588-1.505882 9.788235-6.023529 14.305883-9.035295 4.517647-3.764706 9.788235-7.529412 14.305882-11.294117 3.011765-3.011765-0.752941-8.282353-4.517647-6.02353z" fill="#FFFFFF" p-id="3580"></path></svg>